<svg xmlns="http://www.w3.org/2000/svg" xmlns:xlink="http://www.w3.org/1999/xlink" width="1080" zoomAndPan="magnify" viewBox="0 0 810 809.999993" height="1080" preserveAspectRatio="xMidYMid meet" version="1.0"><defs><clipPath id="e9405abddd"><path d="M 45 0 L 765 0 C 789.851562 0 810 20.148438 810 45 L 810 765 C 810 789.851562 789.851562 810 765 810 L 45 810 C 20.148438 810 0 789.851562 0 765 L 0 45 C 0 20.148438 20.148438 0 45 0 Z M 45 0 " clip-rule="nonzero"/></clipPath><clipPath id="304af92c7f"><path d="M 0 0 L 810 0 L 810 810 L 0 810 Z M 0 0 " clip-rule="nonzero"/></clipPath><clipPath id="b457e7694c"><path d="M 45 0 L 765 0 C 789.851562 0 810 20.148438 810 45 L 810 765 C 810 789.851562 789.851562 810 765 810 L 45 810 C 20.148438 810 0 789.851562 0 765 L 0 45 C 0 20.148438 20.148438 0 45 0 Z M 45 0 " clip-rule="nonzero"/></clipPath><clipPath id="5fbfa29322"><rect x="0" width="810" y="0" height="810"/></clipPath><clipPath id="8f2dea6617"><path d="M 56.382812 192.394531 L 753.882812 192.394531 L 753.882812 617.644531 L 56.382812 617.644531 Z M 56.382812 192.394531 " clip-rule="nonzero"/></clipPath></defs><g clip-path="url(#e9405abddd)"><g transform="matrix(1, 0, 0, 1, 0, 0.000000000000039746)"><g clip-path="url(#5fbfa29322)"><g clip-path="url(#304af92c7f)"><g clip-path="url(#b457e7694c)"><rect x="-178.2" width="1166.4" fill="#ffca05" height="1166.39999" y="-178.199998" fill-opacity="1"/></g></g></g></g></g><g clip-path="url(#8f2dea6617)"><path fill="#ffca05" d="M 808.117188 755.816406 C 808.117188 792.007812 778.800781 821.324219 742.609375 821.324219 L 35.125 821.324219 C -1.070312 821.324219 -30.382812 792.007812 -30.382812 755.816406 L -30.382812 48.328125 C -30.382812 12.136719 -1.070312 -17.179688 35.125 -17.179688 L 742.609375 -17.179688 C 778.800781 -17.179688 808.117188 12.136719 808.117188 48.328125 Z M 808.117188 755.816406 " fill-opacity="1" fill-rule="nonzero"/></g><path fill="#404041" d="M 312.222656 348.519531 L 332.199219 348.519531 L 332.199219 456.28125 L 312.222656 456.28125 Z M 413.757812 456.28125 L 396.234375 456.28125 L 396.234375 405.183594 C 396.234375 394.539062 391.484375 388.808594 382.96875 388.152344 C 377.730469 387.660156 369.214844 388.96875 363.152344 390.28125 L 363.152344 456.28125 L 345.628906 456.28125 L 345.628906 377.835938 C 345.628906 377.835938 367.082031 373.085938 386.410156 373.085938 C 394.761719 373.085938 401.476562 376.03125 406.386719 381.109375 C 411.464844 386.1875 413.921875 393.066406 413.921875 402.070312 L 413.921875 456.28125 Z M 490.238281 385.53125 C 490.238281 372.59375 483.851562 366.042969 471.242188 366.042969 L 448.804688 366.042969 L 448.804688 404.691406 L 470.75 404.691406 C 476.808594 404.691406 481.558594 403.054688 484.996094 399.617188 C 488.4375 396.339844 490.238281 391.589844 490.238281 385.53125 M 510.875 385.53125 C 510.875 396.503906 507.433594 405.347656 500.71875 411.898438 C 494.003906 418.613281 484.671875 421.886719 473.042969 421.886719 L 448.640625 421.886719 L 448.640625 456.28125 L 428.988281 456.28125 L 428.988281 348.519531 L 471.734375 348.519531 C 484.34375 348.519531 494.003906 351.796875 500.71875 358.347656 C 507.433594 364.898438 510.875 374.066406 510.875 385.53125 M 573.761719 415.664062 C 573.761719 407.640625 571.960938 401.253906 568.191406 396.503906 C 564.425781 391.753906 559.511719 389.460938 553.289062 389.460938 C 547.066406 389.460938 542.152344 391.917969 538.386719 396.667969 C 534.621094 401.417969 532.820312 407.804688 532.820312 415.828125 C 532.820312 423.855469 534.621094 430.242188 538.386719 434.988281 C 542.152344 439.738281 547.066406 442.03125 553.289062 442.03125 C 559.511719 442.03125 564.425781 439.738281 568.191406 434.988281 C 571.796875 430.078125 573.761719 423.691406 573.761719 415.664062 M 592.101562 415.5 C 592.101562 428.4375 588.5 438.757812 581.292969 446.617188 C 574.089844 454.480469 564.753906 458.410156 553.125 458.410156 C 541.664062 458.410156 532.328125 454.480469 524.957031 446.617188 C 517.75 438.757812 514.148438 428.273438 514.148438 415.5 C 514.148438 402.5625 517.75 392.246094 524.957031 384.386719 C 532.164062 376.523438 541.5 372.59375 553.125 372.59375 C 564.753906 372.59375 574.089844 376.523438 581.292969 384.386719 C 588.5 392.246094 592.101562 402.726562 592.101562 415.5 M 668.582031 430.40625 C 668.582031 438.429688 665.472656 445.144531 659.085938 450.382812 C 652.863281 455.625 644.507812 458.246094 634.191406 458.246094 C 618.144531 458.246094 605.695312 453.496094 596.851562 443.832031 L 610.445312 432.535156 C 617.160156 439.085938 625.019531 442.359375 634.027344 442.359375 C 639.105469 442.359375 643.035156 441.378906 645.984375 439.410156 C 648.929688 437.445312 650.40625 434.988281 650.40625 432.042969 C 650.40625 428.601562 648.765625 426.308594 645.328125 425 C 643.363281 424.179688 638.121094 423.199219 629.605469 421.886719 C 619.453125 420.414062 612.082031 418.121094 607.824219 415.175781 C 602.75 411.570312 600.128906 406.167969 600.128906 398.960938 C 600.128906 391.589844 603.238281 385.53125 609.460938 380.453125 C 615.6875 375.542969 623.875 373.085938 634.191406 373.085938 C 646.636719 373.085938 657.285156 377.179688 666.128906 385.367188 L 655.480469 396.503906 C 649.09375 390.9375 641.726562 387.988281 633.699219 387.988281 C 623.21875 387.988281 618.144531 390.9375 618.144531 396.832031 C 618.144531 400.269531 620.597656 402.5625 625.347656 403.875 C 632.0625 404.855469 638.777344 406.003906 645.328125 407.148438 C 660.886719 410.097656 668.582031 417.792969 668.582031 430.40625 M 710.671875 456.28125 C 707.722656 457.097656 704.777344 457.425781 701.5 457.425781 C 691.511719 457.425781 684.796875 455.132812 681.519531 450.710938 C 678.902344 447.273438 677.589844 440.558594 677.589844 430.730469 L 677.589844 351.796875 L 695.113281 351.796875 L 695.113281 375.050781 L 710.671875 375.050781 L 710.671875 389.460938 L 695.113281 389.460938 L 695.113281 429.75 C 695.113281 434.5 695.769531 437.445312 696.914062 439.085938 C 698.390625 441.050781 701.335938 442.03125 705.921875 442.03125 C 707.234375 442.03125 708.707031 441.867188 710.507812 441.703125 L 710.507812 456.28125 Z M 710.671875 456.28125 " fill-opacity="1" fill-rule="nonzero"/><path fill="#ffffff" d="M 159.914062 402.234375 C 159.914062 402.234375 139.117188 410.261719 113.242188 410.261719 C 87.53125 410.261719 66.566406 402.234375 66.566406 402.234375 C 66.566406 402.234375 87.367188 394.210938 113.242188 394.210938 C 139.117188 394.210938 159.914062 402.234375 159.914062 402.234375 M 224.441406 283.667969 C 224.441406 283.667969 205.933594 271.21875 191.523438 250.257812 C 177.109375 229.296875 172.199219 207.839844 172.199219 207.839844 C 172.199219 207.839844 190.703125 220.289062 205.117188 241.25 C 219.527344 262.214844 224.441406 283.667969 224.441406 283.667969 M 177.273438 334.925781 C 177.273438 334.925781 155.003906 332.46875 132.238281 320.515625 C 109.472656 308.722656 94.898438 292.019531 94.898438 292.019531 C 94.898438 292.019531 117.171875 294.476562 139.9375 306.429688 C 162.699219 318.058594 177.273438 334.925781 177.273438 334.925781 M 221.164062 438.265625 C 234.59375 434.171875 246.058594 428.273438 246.058594 428.273438 C 246.058594 428.273438 214.285156 419.433594 216.578125 386.1875 C 223.949219 331.652344 268.003906 288.90625 323.195312 282.027344 C 317.296875 281.210938 311.402344 280.71875 305.34375 280.882812 C 237.050781 281.210938 181.859375 335.746094 182.1875 402.726562 C 182.515625 469.710938 238.035156 523.753906 306.324219 523.425781 C 312.058594 523.425781 317.625 522.933594 323.03125 522.277344 C 274.882812 516.054688 235.414062 482.648438 221.164062 438.265625 Z M 224.441406 520.476562 C 224.441406 520.476562 205.933594 532.925781 191.523438 553.886719 C 177.109375 574.847656 172.199219 596.304688 172.199219 596.304688 C 172.199219 596.304688 190.703125 583.855469 205.117188 562.894531 C 219.527344 541.929688 224.441406 520.476562 224.441406 520.476562 M 177.273438 469.382812 C 177.273438 469.382812 155.003906 471.839844 132.238281 483.792969 C 109.472656 495.585938 94.898438 512.453125 94.898438 512.453125 C 94.898438 512.453125 117.171875 509.996094 139.9375 498.042969 C 162.699219 486.085938 177.273438 469.382812 177.273438 469.382812 " fill-opacity="1" fill-rule="nonzero"/></svg>